<?xml version="1.0" standalone="no"?>
<!DOCTYPE svg PUBLIC "-//W3C//DTD SVG 20010904//EN"
 "http://www.w3.org/TR/2001/REC-SVG-20010904/DTD/svg10.dtd">
<svg version="1.0" xmlns="http://www.w3.org/2000/svg"
 width="900.000000pt" height="700.000000pt" viewBox="0 0 900.000000 700.000000"
 preserveAspectRatio="xMidYMid meet">

<g transform="translate(0.000000,700.000000) scale(0.100000,-0.100000)"
fill="#FA8072" stroke="none">
<path d="M4250 6834 c-74 -42 -117 -91 -151 -173 -17 -41 -53 -123 -80 -181
-27 -58 -55 -139 -64 -180 -37 -177 -116 -683 -140 -900 -39 -359 -161 -1151
-195 -1273 l-11 -38 -87 5 c-48 3 -175 7 -282 8 l-195 3 -2 -420 c-1 -231 -5
-863 -9 -1405 -4 -542 -8 -1129 -8 -1304 l-1 -320 90 -12 c50 -7 176 -25 280
-39 105 -14 350 -50 545 -80 195 -30 447 -68 560 -84 185 -28 912 -141 1329
-207 136 -22 165 -24 173 -13 6 9 7 96 4 219 -14 499 -19 2519 -7 3009 7 277
9 507 4 511 -4 4 -60 10 -123 14 -192 11 -431 27 -505 34 l-69 7 -28 225 c-15
124 -39 333 -53 465 -14 132 -32 296 -40 365 -8 69 -26 231 -40 360 -38 355
-53 444 -95 575 -21 66 -48 154 -60 195 -28 97 -186 416 -249 501 -70 95 -132
118 -221 83 -34 -14 -43 -14 -59 -3 -10 8 -37 29 -61 47 -53 39 -89 41 -150 6z
m137 -110 c-87 -45 -168 -190 -218 -390 -43 -172 -42 -171 -50 -74 -24 296
-24 300 7 365 32 65 22 60 199 103 107 26 119 26 62 -4z m113 -55 c72 -141 91
-212 116 -434 13 -115 31 -304 39 -420 9 -115 35 -417 60 -670 24 -253 51
-545 59 -650 9 -104 20 -246 25 -314 6 -69 9 -127 6 -129 -5 -5 -678 19 -685
25 -7 6 38 473 70 739 38 300 77 837 84 1141 10 385 61 623 161 742 15 17 29
31 31 31 2 0 18 -27 34 -61z m158 12 c51 -26 174 -171 192 -226 7 -22 28 -76
47 -120 50 -118 63 -202 64 -415 0 -102 4 -223 9 -270 37 -353 52 -606 42
-705 -4 -39 -10 -6 -28 155 -35 313 -158 1007 -209 1184 -48 167 -133 333
-204 400 -17 17 -31 33 -31 37 0 10 62 -11 118 -40z m-573 -865 c-4 -31 -11
-56 -15 -56 -7 0 -7 9 5 84 10 59 18 35 10 -28z m-149 -1118 c-7 -46 -34 -306
-49 -473 l-12 -140 -34 -3 c-32 -3 -33 -2 -26 25 6 24 62 343 98 556 6 37 15
67 20 67 4 0 6 -15 3 -32z m1162 -555 l28 -113 -23 0 c-13 0 -25 6 -27 13 -6
17 -16 234 -11 222 3 -5 17 -61 33 -122z"/>
</g>
</svg>
